# xmcd
#
# Track frame offsets:
#	150
#	10694
#	22372
#	34851
#	47734
#	58560
#	72401
#	81833
#	93637
#	106797
#	118347
#
# Disc length: 1834 seconds
# Revision: 0
# Processed by: cddbd v1.5.2PL0 Copyright (c) Steve Scherf et al.
# Submitted via: dBpowerAMP V12.0
#
DISCID=9407280b
DTITLE=Jack Greene - Jack Greene's Greatest Hits [Decca] (L)
DYEAR=1973
DGENRE=Country
TTITLE0=Don't You Ever Get Tired (of Hurting Me)
TTITLE1=There Goes My Everything
TTITLE2=All the Time
TTITLE3=Wanting You But Never Having You
TTITLE4=What Locks the Door
TTITLE5=You are My Treasure
TTITLE6=Love Takes Care of Me
TTITLE7=Until My Dreams Come True
TTITLE8=Statue of a Fool
TTITLE9=Back in the Arms of Love
TTITLE10=Lord is that Me
EXTD=
EXTT0=
EXTT1=
EXTT2=
EXTT3=
EXTT4=
EXTT5=
EXTT6=
EXTT7=
EXTT8=
EXTT9=
EXTT10=
PLAYORDER=
